<?xml version="1.0" encoding="UTF-8" standalone="no"?>
<svg
   width="400"
   height="400"
   viewBox="0 0 400 400"
   fill="none"
   version="1.1"
   id="svg5"
   sodipodi:docname="stYFI-mark.svg"
   inkscape:version="1.4.3 (0d15f75042, 2025-12-25)"
   xmlns:inkscape="http://www.inkscape.org/namespaces/inkscape"
   xmlns:sodipodi="http://sodipodi.sourceforge.net/DTD/sodipodi-0.dtd"
   xmlns="http://www.w3.org/2000/svg"
   xmlns:svg="http://www.w3.org/2000/svg">
  <defs
     id="defs5" />
  <sodipodi:namedview
     id="namedview5"
     pagecolor="#505050"
     bordercolor="#eeeeee"
     borderopacity="1"
     inkscape:showpageshadow="0"
     inkscape:pageopacity="0"
     inkscape:pagecheckerboard="0"
     inkscape:deskcolor="#505050"
     inkscape:zoom="2.19"
     inkscape:cx="200"
     inkscape:cy="200"
     inkscape:window-width="2019"
     inkscape:window-height="1251"
     inkscape:window-x="197"
     inkscape:window-y="142"
     inkscape:window-maximized="0"
     inkscape:current-layer="svg5" />
  <path
     d="M 200,400 C 310.457,400 400,310.457 400,200 400,89.5431 310.457,0 200,0 89.5431,0 0,89.5431 0,200 0,310.457 89.5431,400 200,400 Z"
     fill="#fb7f33"
     id="path1"
     style="display:none" />
  <path
     d="m 163.659,261.184 c 0.61,6.313 4.164,11.472 10.665,15.475 6.501,3.85 15.338,5.774 26.51,5.774 8.938,0 16.15,-1.308 21.635,-3.927 5.485,-2.617 8.227,-6.467 8.227,-11.548 0,-3.234 -1.523,-5.774 -4.57,-7.622 -3.047,-1.847 -7.822,-3.388 -14.322,-4.619 -6.298,-1.386 -16.76,-3.233 -31.386,-5.544 -14.22,-2.309 -26.002,-5.003 -35.347,-8.084 -9.344,-3.233 -16.86,-8.007 -22.549,-14.319 -5.687,-6.467 -8.532,-15.013 -8.532,-25.638 0,-9.546 3.556,-18.169 10.665,-25.868 7.314,-7.699 17.268,-13.704 29.863,-18.016 12.798,-4.465 27.018,-6.698 42.659,-6.698 16.049,0 30.472,2.233 43.27,6.698 13.001,4.465 23.159,10.702 30.471,18.709 7.517,7.853 11.275,16.629 11.275,26.33 h -54.544 c -0.609,-5.697 -3.555,-10.24 -8.837,-13.627 -5.281,-3.542 -12.493,-5.312 -21.635,-5.312 -7.922,0 -14.423,1.231 -19.501,3.695 -4.876,2.464 -7.313,6.082 -7.313,10.856 0,3.233 1.421,5.774 4.266,7.622 3.047,1.693 7.719,3.233 14.017,4.619 6.297,1.232 16.556,2.926 30.776,5.081 14.423,2.156 26.408,4.774 35.956,7.853 9.548,3.079 17.166,7.699 22.854,13.858 5.891,6.16 8.837,14.398 8.837,24.714 0,10.008 -3.759,19.094 -11.275,27.255 -7.516,8.16 -17.978,14.551 -31.386,19.17 -13.204,4.619 -28.033,6.929 -44.488,6.929 -17.064,0 -32.503,-2.387 -46.316,-7.16 -13.814,-4.774 -24.682,-11.317 -32.605,-19.632 -7.923,-8.316 -11.884,-17.632 -11.884,-27.948 z"
     fill="#ffffff"
     id="path6"
     style="display:none" />
  <path
     id="path2"
     style="display:inline;fill:#ffffff"
     d="m 145.23047,160.95312 c -8.30425,3.84243 -15.16374,8.61321 -20.57617,14.31055 -7.109,7.699 -10.66407,16.32314 -10.66407,25.86914 0,10.625 2.84425,19.16972 8.53125,25.63672 5.689,6.312 13.20483,11.08731 22.54883,14.32031 9.345,3.081 21.12766,5.77499 35.34766,8.08399 14.626,2.311 25.08872,4.15697 31.38672,5.54297 6.5,1.231 11.27526,2.77214 14.32226,4.61914 3.047,1.848 4.56836,4.38709 4.56836,7.62109 0,5.081 -2.74156,8.93183 -8.22656,11.54883 -5.485,2.619 -12.69677,3.92773 -21.63477,3.92773 -11.172,0 -20.00876,-1.92539 -26.50976,-5.77539 -6.501,-4.003 -10.05602,-9.16161 -10.66602,-15.47461 l -54.54297,-0.92382 c 0,10.316 3.95982,19.63126 11.88282,27.94726 7.923,8.315 18.79147,14.85881 32.60547,19.63281 13.813,4.773 29.2524,7.16016 46.3164,7.16016 16.455,0 31.28428,-2.31069 44.48828,-6.92969 13.408,-4.619 23.87072,-11.00992 31.38672,-19.16992 7.516,-8.161 11.27344,-17.24591 11.27344,-27.25391 0,-10.316 -2.94494,-18.55484 -8.83594,-24.71484 -5.688,-6.159 -13.30551,-10.77842 -22.85351,-13.85742 -9.548,-3.079 -21.53403,-5.69752 -35.95703,-7.85352 -14.22,-2.155 -24.4784,-3.84808 -30.7754,-5.08008 -0.2089,-0.046 -0.41576,-0.0924 -0.62109,-0.13867 -2.5331,-0.46097 -8.37847,-1.62045 -15.41601,-3.64648 -9.46301,-2.724 -13.62696,-6.35742 -13.62696,-6.35742 v -25.12696 l -13.75,-13.91797 z m 107.99023,1.72266 -12.05078,12.19531 v 27.41602 h 41.02344 c 0,-9.701 -3.75839,-18.47708 -11.27539,-26.33008 -4.71547,-5.16367 -10.61535,-9.59036 -17.69727,-13.28125 z m -53.14453,7.75 -4.39062,4.44531 -1.52344,8.53907 c 0.98093,-0.0415 1.98675,-0.0625 3.01562,-0.0625 2.58489,0 5.01475,0.14272 7.29102,0.42578 v -8.90235 z" />
  <path
     fill-rule="evenodd"
     clip-rule="evenodd"
     d="m 132.479,98.0639 -12.905,13.0641 31.491,31.872 31.491,31.872 v 20.917 l 36.703,6.192 V 174.872 L 250.674,143.078 282.089,111.283 269.103,98.1507 256.117,85.0189 228.682,112.71 c -15.089,15.231 -27.584,27.692 -27.768,27.692 -0.183,0 -12.695,-12.466 -27.806,-27.701 C 157.998,97.4655 145.578,85 145.51,85 c -0.069,0 -5.933,5.8789 -13.031,13.0639 z"
     fill="#ffffff"
     id="path5"
     style="display:inline" />
</svg>
